<svg xmlns="http://www.w3.org/2000/svg" xmlns:xlink="http://www.w3.org/1999/xlink" cache-id="244e6d2abcf5433abd625d7db2ceef55" id="e6sJNU2Y0tc1" viewBox="0 0 300 300" shape-rendering="geometricPrecision" text-rendering="geometricPrecision"><rect width="194.81136" height="80.980028" rx="2" ry="2" transform="matrix(1 0 0 1.441229 52.59432 118.215918)" fill="none" stroke="#fff" stroke-width="4"/><line x1="-7.592675" y1="-9.743761" x2="7.592675" y2="9.743761" transform="matrix(.958956 0 0 1.165028 227.578271 130.721501)" fill="none" stroke="#fff" stroke-width="3"/><line x1="-7.592675" y1="-9.743761" x2="7.592675" y2="9.743761" transform="matrix(.958956 0 0 1.165028 207.480012 131.755245)" fill="none" stroke="#fff" stroke-width="3"/><g id="e6sJNU2Y0tc5" transform="translate(-0.000011 0.020446)"><rect width="193.836534" height="25.011166" rx="2" ry="2" transform="matrix(.978286-.20726 0.20726 0.978286 52.59432 90.032795)" fill="none" stroke="#fff" stroke-width="4"/><line x1="-7.592675" y1="-9.743761" x2="7.592675" y2="9.743761" transform="matrix(.958956 0 0 1.165028 87.783721 95.578382)" fill="none" stroke="#fff" stroke-width="3"/><line x1="-7.592675" y1="-9.743761" x2="7.592675" y2="9.743761" transform="matrix(.958956 0 0 1.165028 67.238834 100.044661)" fill="none" stroke="#fff" stroke-width="3"/><line x1="-7.592675" y1="-9.743761" x2="7.592675" y2="9.743761" transform="matrix(.958956 0 0 1.165028 107.435351 91.558731)" fill="none" stroke="#fff" stroke-width="3"/><line x1="-7.592675" y1="-9.743761" x2="7.592675" y2="9.743761" transform="matrix(.958956 0 0 1.165028 127.533609 86.645823)" fill="none" stroke="#fff" stroke-width="3"/><line x1="-7.592675" y1="-9.743761" x2="7.592675" y2="9.743761" transform="matrix(.958956 0 0 1.165028 147.631867 83.072798)" fill="none" stroke="#fff" stroke-width="3"/><line x1="-7.592675" y1="-9.743761" x2="7.592675" y2="9.743761" transform="matrix(.958956 0 0 1.165028 167.283497 79.053147)" fill="none" stroke="#fff" stroke-width="3"/><line x1="-7.592675" y1="-9.743761" x2="7.592675" y2="9.743761" transform="matrix(.958956 0 0 1.165028 187.828383 75.480123)" fill="none" stroke="#fff" stroke-width="3"/><line x1="-7.592675" y1="-9.743761" x2="7.592675" y2="9.743761" transform="matrix(.958956 0 0 1.165028 207.480013 70.567215)" fill="none" stroke="#fff" stroke-width="3"/><line x1="-7.592675" y1="-9.743761" x2="7.592675" y2="9.743761" transform="matrix(.958956 0 0 1.165028 228.0249 66.407076)" fill="none" stroke="#fff" stroke-width="3"/></g><line x1="-7.592675" y1="-9.743761" x2="7.592675" y2="9.743761" transform="matrix(.958956 0 0 1.165028 187.381754 131.308618)" fill="none" stroke="#fff" stroke-width="3"/><line x1="-7.592675" y1="-9.743761" x2="7.592675" y2="9.743761" transform="matrix(.958956 0 0 1.165028 166.836868 130.86199)" fill="none" stroke="#fff" stroke-width="3"/><line x1="-7.592675" y1="-9.743761" x2="7.592675" y2="9.743761" transform="matrix(.958956 0 0 1.165028 147.185238 131.308618)" fill="none" stroke="#fff" stroke-width="3"/><line x1="-7.592675" y1="-9.743761" x2="7.592675" y2="9.743761" transform="matrix(.958956 0 0 1.165028 127.533608 130.86199)" fill="none" stroke="#fff" stroke-width="3"/><line x1="-7.592675" y1="-9.743761" x2="7.592675" y2="9.743761" transform="matrix(.958956 0 0 1.165028 107.43535 130.86199)" fill="none" stroke="#fff" stroke-width="3"/><line x1="-7.592675" y1="-9.743761" x2="7.592675" y2="9.743761" transform="matrix(.958956 0 0 1.165028 87.337092 130.86199)" fill="none" stroke="#fff" stroke-width="3"/><line x1="-7.592675" y1="-9.743761" x2="7.592675" y2="9.743761" transform="matrix(.958956 0 0 1.165028 67.685462 130.415362)" fill="none" stroke="#fff" stroke-width="3"/><ellipse rx="14" ry="14" transform="translate(60.530926 115.467145)" fill="#000" stroke="#fff" stroke-width="4"/><line x1="-97.364895" y1="0" x2="97.364895" y2="0" transform="translate(150 142.474319)" fill="none" stroke="#fff" stroke-width="5" stroke-miterlimit="10"/>
</svg>
